<?xml version="1.0" encoding="UTF-8"?>
<!DOCTYPE svg PUBLIC "-//W3C//DTD SVG 1.1//EN" "http://www.w3.org/Graphics/SVG/1.1/DTD/svg11.dtd">
<!-- Creator: CorelDRAW -->
<svg xmlns="http://www.w3.org/2000/svg" xml:space="preserve" width="115.165mm" height="74.8733mm" version="1.1" style="shape-rendering:geometricPrecision; text-rendering:geometricPrecision; image-rendering:optimizeQuality; fill-rule:evenodd; clip-rule:evenodd"
viewBox="0 0 918.58 597.21"
 xmlns:xlink="http://www.w3.org/1999/xlink"
 xmlns:xodm="http://www.corel.com/coreldraw/odm/2003">
 <defs>
  <style type="text/css">
   <![CDATA[
    .fil2 {fill:#B5FB05}
    .fil0 {fill:#2B363C;fill-rule:nonzero}
    .fil1 {fill:#A6E300;fill-rule:nonzero}
   ]]>
  </style>
 </defs>
 <g id="Capa_x0020_1">
  <metadata id="CorelCorpID_0Corel-Layer"/>
  <g id="_1395659387248">
   <path class="fil0" d="M45.77 558.46c-12.51,0 -22.58,-2.55 -30.21,-7.66 -7.63,-5.1 -12.81,-12.21 -15.56,-21.32l28.48 -14.65c3.51,8.78 10.21,13.17 20.09,13.17 7.79,0 12.07,-2.03 12.84,-6.09 0.22,-1.32 0,-2.47 -0.66,-3.46 -0.66,-0.99 -1.81,-1.87 -3.46,-2.63 -1.65,-0.77 -3.18,-1.43 -4.61,-1.98 -1.43,-0.55 -3.43,-1.21 -6.01,-1.98 -2.58,-0.77 -4.58,-1.37 -6.01,-1.81 -20.42,-7.13 -29.03,-19.76 -25.85,-37.87 1.87,-10.32 6.91,-18.6 15.15,-24.86 8.23,-6.26 18.27,-9.38 30.13,-9.38 9.88,0 18.33,2.31 25.35,6.92 7.02,4.61 12.35,11.25 15.97,19.92l-27.82 14.82c-2.85,-7.46 -8.07,-11.2 -15.64,-11.2 -5.71,0 -9,1.98 -9.88,5.93 -0.44,2.41 0.55,4.39 2.96,5.93 2.42,1.54 7.35,3.57 14.82,6.09 4.72,1.54 8.64,3.1 11.77,4.69 3.13,1.59 6.31,3.81 9.55,6.67 3.24,2.85 5.43,6.53 6.59,11.03 1.15,4.5 1.23,9.77 0.25,15.81 -1.98,11.2 -7.16,19.65 -15.56,25.35 -8.4,5.71 -19.29,8.56 -32.68,8.56zm213.15 -87.26c10.76,0 19.21,4.42 25.35,13.25 6.15,8.84 8.12,19.45 5.93,31.86 -2.2,12.51 -7.16,22.61 -14.9,30.29 -7.74,7.68 -16.93,11.52 -27.58,11.52 -10.56,0 -18.14,-3.84 -22.69,-11.55l-1.65 9.25 -30.27 0 20.44 -115.25 30.27 0 -6.97 39.27c5.82,-5.76 13.17,-8.64 22.06,-8.64zm1.21 43.46c0.88,-4.72 0.22,-8.48 -1.98,-11.28 -2.2,-2.8 -5.49,-4.2 -9.88,-4.2 -4.5,0 -8.34,1.4 -11.52,4.2 -3.18,2.8 -5.16,6.56 -5.93,11.28 -0.88,4.72 -0.22,8.48 1.98,11.28 2.2,2.8 5.49,4.2 9.88,4.2 4.5,0 8.34,-1.4 11.52,-4.2 3.18,-2.8 5.16,-6.56 5.93,-11.28zm103.39 -41.16l30.46 0 -14.49 82.32 -30.46 0 1.32 -7.24c-6.37,6.37 -14.05,9.55 -23.05,9.55 -10.98,0 -19.24,-4.28 -24.78,-12.84 -5.54,-8.56 -7.49,-18.88 -5.84,-30.95 1.65,-11.96 6.34,-22.14 14.08,-30.54 7.74,-8.4 17.31,-12.59 28.73,-12.59 10.54,0 18,3.84 22.39,11.52l1.65 -9.22zm-24.53 56.64c4.5,0 8.26,-1.37 11.28,-4.12 3.02,-2.74 4.97,-6.37 5.84,-10.87l0.16 -0.49c0.77,-4.5 0.11,-8.2 -1.98,-11.11 -2.08,-2.91 -5.38,-4.36 -9.88,-4.36 -4.5,0 -8.34,1.43 -11.52,4.28 -3.18,2.85 -5.16,6.59 -5.93,11.2 -0.77,4.5 -0.11,8.2 1.98,11.11 2.08,2.91 5.43,4.36 10.04,4.36zm89.73 27.99c-9.66,0 -17.62,-1.54 -23.87,-4.61 -6.26,-3.07 -10.92,-8.29 -13.99,-15.64l25.85 -12.35c2.41,6.26 6.7,9.38 12.84,9.38 3.95,0 6.15,-1.15 6.59,-3.46 0.33,-1.54 -0.82,-2.85 -3.46,-3.95 -2.63,-1.1 -5.87,-2.22 -9.71,-3.38 -3.84,-1.15 -7.6,-2.63 -11.28,-4.45 -3.68,-1.81 -6.59,-4.72 -8.73,-8.73 -2.14,-4.01 -2.72,-8.92 -1.73,-14.74 0.99,-5.71 3.48,-10.54 7.49,-14.49 4.01,-3.95 8.45,-6.7 13.34,-8.23 4.88,-1.54 10.07,-2.31 15.56,-2.31 7.9,0 14.82,1.59 20.74,4.77 5.93,3.18 10.26,7.96 13.01,14.32l-24.37 11.36c-1.98,-5.05 -5.21,-7.74 -9.71,-8.07 -3.29,-0.22 -5.21,0.99 -5.76,3.62 -0.33,1.65 0.41,3.02 2.22,4.12 1.81,1.1 4.2,1.95 7.16,2.55 2.96,0.6 6.15,1.56 9.55,2.88 3.4,1.32 6.48,2.88 9.22,4.69 2.74,1.81 4.8,4.64 6.17,8.48 1.37,3.84 1.56,8.45 0.58,13.83 -1.54,8.56 -5.84,14.76 -12.92,18.6 -7.08,3.84 -15.34,5.76 -24.78,5.76zm85.94 -55.65l-3.13 17.78c-0.66,4.06 0.11,6.53 2.31,7.41 2.2,0.88 6.7,1.15 13.5,0.82l-4.77 27.33c-16.46,2.52 -28.15,0.99 -35.07,-4.61 -6.92,-5.6 -9.17,-15.37 -6.75,-29.31l3.46 -19.43 -11.52 0 5.1 -28.98 11.52 0 2.47 -14 31.94 -9.05 -3.95 23.05 17.29 0 -5.1 28.98 -17.29 0zm88.41 -28.98l30.46 0 -14.49 82.32 -30.46 0 1.32 -7.24c-6.37,6.37 -14.05,9.55 -23.05,9.55 -10.98,0 -19.24,-4.28 -24.78,-12.84 -5.54,-8.56 -7.49,-18.88 -5.84,-30.95 1.65,-11.96 6.34,-22.14 14.08,-30.54 7.74,-8.4 17.31,-12.59 28.73,-12.59 10.54,0 18,3.84 22.39,11.52l1.65 -9.22zm-24.53 56.64c4.5,0 8.26,-1.37 11.28,-4.12 3.02,-2.74 4.97,-6.37 5.84,-10.87l0.16 -0.49c0.77,-4.5 0.11,-8.2 -1.98,-11.11 -2.08,-2.91 -5.38,-4.36 -9.88,-4.36 -4.5,0 -8.34,1.43 -11.52,4.28 -3.18,2.85 -5.16,6.59 -5.93,11.2 -0.77,4.5 -0.11,8.2 1.98,11.11 2.08,2.91 5.43,4.36 10.04,4.36zm-414.37 -56.64l30.27 0 -14.68 82.32 -30.27 0 1.45 -8.12c-6.37,6.94 -14.21,10.43 -23.54,10.43 -8.75,0 -15.42,-3.21 -19.98,-9.63 -4.56,-6.42 -5.79,-15.56 -3.7,-27.41l8.4 -47.58 30.27 0 -7.63 44.26c-1.32,7.38 1.45,11.06 8.31,11.06 7.13,0 11.58,-3.92 13.34,-11.8l7.77 -43.52z"/>
   <path class="fil1" d="M699.17 471.2c8.73,0 15.37,3.21 19.89,9.63 4.53,6.39 5.76,15.53 3.68,27.38l-8.4 47.61 -30.27 0 7.66 -44.32c1.32,-7.33 -1.45,-11 -8.26,-11 -7.05,0 -11.47,3.92 -13.23,11.8l-7.77 43.52 -30.27 0 14.68 -82.32 30.27 0 -1.43 7.96c6.34,-6.83 14.13,-10.26 23.43,-10.26zm103.97 -30.62l30.27 0 -20.44 115.25 -30.27 0 1.26 -7.13c-6.37,6.28 -14.05,9.44 -23.05,9.44 -10.98,0 -19.24,-4.28 -24.78,-12.84 -5.54,-8.56 -7.49,-18.88 -5.84,-30.95 1.65,-11.96 6.34,-22.14 14.08,-30.54 7.74,-8.4 17.31,-12.59 28.73,-12.59 10.59,0 18.14,3.81 22.58,11.41l7.46 -42.04zm-30.43 89.56c4.39,0 8.12,-1.32 11.2,-3.98 3.07,-2.63 5.05,-6.17 5.93,-10.59l0.3 -1.62c0.55,-4.39 -0.19,-7.93 -2.2,-10.67 -2.03,-2.72 -5.3,-4.09 -9.8,-4.09 -4.5,0 -8.34,1.43 -11.52,4.28 -3.18,2.85 -5.16,6.59 -5.93,11.2 -0.77,4.5 -0.11,8.2 1.98,11.11 2.08,2.91 5.43,4.36 10.04,4.36zm128.78 15.8c-8.84,8.12 -20,12.18 -33.5,12.18 -13.5,0 -23.74,-4.61 -30.71,-13.83 -6.97,-9.22 -9.41,-19.76 -7.33,-31.61 1.98,-11.42 7.41,-21.18 16.3,-29.31 8.89,-8.12 20.14,-12.18 33.75,-12.18 13.17,0 23.3,4.64 30.38,13.91 7.08,9.27 9.58,19.78 7.49,31.53 -2.09,11.41 -7.55,21.18 -16.38,29.31zm-40.01 -20.83c2.14,2.69 5.24,4.03 9.3,4.03 4.06,0 7.6,-1.34 10.62,-4.03 3.02,-2.69 4.91,-6.17 5.68,-10.45 0.77,-4.28 0.11,-7.77 -1.98,-10.45 -2.09,-2.69 -5.16,-4.03 -9.22,-4.03 -4.06,0 -7.63,1.34 -10.7,4.03 -3.07,2.69 -4.99,6.17 -5.76,10.45 -0.77,4.28 -0.08,7.77 2.06,10.45z"/>
  </g>
  <polygon class="fil2" points="642.46,299.08 637.84,220.63 501.36,143.37 646.37,85.32 607.64,0 377.64,88.88 381.99,183.99 502.29,253.2 274.46,345.67 282.7,436.39 "/>
  <path class="fil0" d="M10.92 576.65l0 20.56 18.25 0 0 -2.34 -15.47 0 0 -18.22 -2.78 0zm34.81 2.6l5.46 10.65 -10.92 0 5.46 -10.65zm-1.55 -2.6l-10.83 20.56 3.15 0 2.67 -5.22 13.12 0 2.68 5.22 3.15 0 -10.83 -20.56 -3.11 0zm29.49 0l0 20.56 2.78 0 0 -8.79 13.69 0 0 -2.34 -13.69 0 0 -7.08 14.71 0 0 -2.34 -17.49 0zm26.99 2.44l9.5 0c1.58,0 2.86,1.28 2.86,2.86l0 9.96c0,1.58 -1.28,2.86 -2.86,2.86l-9.5 0c-1.58,0 -2.86,-1.28 -2.86,-2.86l0 -9.96c0,-1.58 1.28,-2.86 2.86,-2.86zm-0.83 -2.44c-2.66,0 -4.81,2.14 -4.81,4.79l0 10.97c0,2.66 2.15,4.79 4.81,4.79l11.16 0c2.66,0 4.81,-2.13 4.81,-4.79l0 -10.97c0,-2.66 -2.15,-4.79 -4.81,-4.79l-11.16 0zm23.21 2.44l12.36 0c1.58,0 2.86,1.29 2.86,2.87l0 2.03c0,1.59 -1.28,2.87 -2.86,2.87l-12.36 0 0 -7.78zm-2.78 -2.44l0 20.56 2.78 0 0 -7.91 10.87 0 4.58 7.91 3.15 0 -4.64 -8c2.28,-0.34 4.04,-2.3 4.04,-4.7l0 -3.06c0,-2.66 -2.15,-4.8 -4.81,-4.8l-15.97 0zm24.92 0l0 20.56 2.78 0 0 -16.19 9.38 16.19 1.28 0 9.33 -16.1 0 16.1 2.78 0 0 -20.56 -2.88 0 -9.87 16.99 -9.87 -16.99 -2.93 0zm42.08 2.6l5.46 10.65 -10.92 0 5.46 -10.65zm-1.55 -2.6l-10.83 20.56 3.15 0 2.67 -5.22 13.12 0 2.68 5.22 3.15 0 -10.83 -20.56 -3.11 0zm29.49 0l0 20.56 2.78 0 0 -20.56 -2.78 0zm7.59 0l0 20.56 2.78 0 0 -17.07 14.86 17.07 3.13 0 0 -20.56 -2.78 0 0 17.07 -14.86 -17.07 -3.13 0zm24.94 0l0 2.34 9 0 0 18.22 2.78 0 0 -18.22 9 0 0 -2.34 -20.78 0zm24.91 0l0 20.56 17.65 0 0 -2.34 -14.86 0 0 -6.89 13.85 0 0 -2.34 -13.85 0 0 -6.64 14.86 0 0 -2.34 -17.65 0zm22.45 0l0 20.56 18.25 0 0 -2.34 -15.47 0 0 -18.22 -2.78 0zm22.11 0l0 20.56 2.78 0 0 -20.56 -2.78 0zm12.08 0c-2.66,0 -4.81,2.14 -4.81,4.79l0 10.97c0,2.66 2.15,4.8 4.81,4.8l11.16 0c2.66,0 4.81,-2.13 4.81,-4.8l0 -6.34 -13.79 0 0 2.02 11.01 0 0 3.81c0,1.58 -1.28,2.87 -2.86,2.87l-9.5 0c-1.58,0 -2.86,-1.29 -2.86,-2.87l0 -9.96c0,-1.58 1.28,-2.86 2.86,-2.86l9.5 0c1.58,0 2.86,1.28 2.86,2.86l0 1.18 2.78 0 0 -1.68c0,-2.66 -2.15,-4.79 -4.81,-4.79l-11.16 0zm20.43 0l0 20.56 17.65 0 0 -2.34 -14.86 0 0 -6.89 13.85 0 0 -2.34 -13.85 0 0 -6.64 14.86 0 0 -2.34 -17.65 0zm22.45 0l0 20.56 2.78 0 0 -17.07 14.86 17.07 3.13 0 0 -20.56 -2.78 0 0 17.07 -14.86 -17.07 -3.13 0zm24.94 0l0 2.34 9 0 0 18.22 2.78 0 0 -18.22 9 0 0 -2.34 -20.78 0zm24.91 0l0 20.56 17.65 0 0 -2.34 -14.86 0 0 -6.89 13.85 0 0 -2.34 -13.85 0 0 -6.64 14.86 0 0 -2.34 -17.65 0zm37.89 2.44l12.36 0c1.58,0 2.86,1.28 2.86,2.86l0 9.96c0,1.58 -1.28,2.86 -2.86,2.86l-12.36 0 0 -15.69zm-2.78 -2.44l0 20.56 15.97 0c2.66,0 4.81,-2.13 4.81,-4.79l0 -10.97c0,-2.66 -2.15,-4.79 -4.81,-4.79l-15.97 0zm25.24 0l0 20.56 17.65 0 0 -2.34 -14.86 0 0 -6.89 13.85 0 0 -2.34 -13.85 0 0 -6.64 14.86 0 0 -2.34 -17.65 0zm39.91 0c-2.66,0 -4.81,2.14 -4.81,4.79l0 10.97c0,2.66 2.15,4.79 4.81,4.79l11.16 0c2.66,0 4.81,-2.13 4.81,-4.79l0 -1.74 -2.78 0 0 1.24c0,1.58 -1.28,2.86 -2.86,2.86l-9.5 0c-1.58,0 -2.86,-1.28 -2.86,-2.86l0 -9.96c0,-1.58 1.28,-2.86 2.86,-2.86l9.5 0c1.58,0 2.86,1.28 2.86,2.86l0 1.24 2.78 0 0 -1.75c0,-2.66 -2.15,-4.79 -4.81,-4.79l-11.16 0zm26.39 2.44l9.5 0c1.58,0 2.86,1.28 2.86,2.86l0 9.96c0,1.58 -1.28,2.86 -2.86,2.86l-9.5 0c-1.58,0 -2.86,-1.28 -2.86,-2.86l0 -9.96c0,-1.58 1.28,-2.86 2.86,-2.86zm-0.83 -2.44c-2.66,0 -4.81,2.14 -4.81,4.79l0 10.97c0,2.66 2.15,4.79 4.81,4.79l11.16 0c2.66,0 4.81,-2.13 4.81,-4.79l0 -10.97c0,-2.66 -2.15,-4.79 -4.81,-4.79l-11.16 0zm20.43 0l0 20.56 2.78 0 0 -16.19 9.38 16.19 1.28 0 9.33 -16.1 0 16.1 2.78 0 0 -20.56 -2.88 0 -9.87 16.99 -9.87 -16.99 -2.93 0zm33.11 2.44l12.36 0c1.58,0 2.86,1.29 2.86,2.87l0 2.16c0,1.59 -1.28,2.87 -2.86,2.87l-12.36 0 0 -7.91zm-2.78 -2.44l0 20.56 2.78 0 0 -7.78 13.19 0c2.66,0 4.81,-2.13 4.81,-4.8l0 -3.18c0,-2.66 -2.15,-4.8 -4.81,-4.8l-15.97 0zm27.71 2.44l12.36 0c1.58,0 2.86,1.29 2.86,2.87l0 2.03c0,1.59 -1.28,2.87 -2.86,2.87l-12.36 0 0 -7.78zm-2.78 -2.44l0 20.56 2.78 0 0 -7.91 10.87 0 4.58 7.91 3.15 0 -4.64 -8c2.28,-0.34 4.04,-2.3 4.04,-4.7l0 -3.06c0,-2.66 -2.15,-4.8 -4.81,-4.8l-15.97 0zm37.31 2.6l5.46 10.65 -10.92 0 5.46 -10.65zm-1.55 -2.6l-10.83 20.56 3.15 0 2.67 -5.22 13.12 0 2.68 5.22 3.15 0 -10.83 -20.56 -3.11 0zm20.89 2.44l12.36 0c1.58,0 2.86,1.29 2.86,2.87l0 2.03c0,1.59 -1.28,2.87 -2.86,2.87l-12.36 0 0 -7.78zm-2.78 -2.44l0 20.56 2.78 0 0 -7.91 10.87 0 4.58 7.91 3.15 0 -4.64 -8c2.28,-0.34 4.04,-2.3 4.04,-4.7l0 -3.06c0,-2.66 -2.15,-4.8 -4.81,-4.8l-15.97 0zm38.2 0l9.75 12.49 0 8.07 2.78 0 0 -8.07 9.75 -12.49 -2.93 0 -8.21 10.41 -8.21 -10.41 -2.93 0zm42.88 0l-3.15 0 10.83 20.56 3.11 0 10.83 -20.56 -3.15 0 -9.24 17.94 -9.23 -17.94zm25.79 0l0 20.56 17.65 0 0 -2.34 -14.86 0 0 -6.89 13.85 0 0 -2.34 -13.85 0 0 -6.64 14.86 0 0 -2.34 -17.65 0zm22.45 0l0 20.56 2.78 0 0 -17.07 14.86 17.07 3.13 0 0 -20.56 -2.78 0 0 17.07 -14.86 -17.07 -3.13 0zm28.34 2.44l12.36 0c1.58,0 2.86,1.28 2.86,2.86l0 9.96c0,1.58 -1.28,2.86 -2.86,2.86l-12.36 0 0 -15.69zm-2.78 -2.44l0 20.56 15.97 0c2.66,0 4.81,-2.13 4.81,-4.79l0 -10.97c0,-2.66 -2.15,-4.79 -4.81,-4.79l-15.97 0zm25.24 0l0 20.56 17.65 0 0 -2.34 -14.86 0 0 -6.89 13.85 0 0 -2.34 -13.85 0 0 -6.64 14.86 0 0 -2.34 -17.65 0zm25.24 2.44l12.36 0c1.58,0 2.86,1.29 2.86,2.87l0 2.03c0,1.59 -1.28,2.87 -2.86,2.87l-12.36 0 0 -7.78zm-2.78 -2.44l0 20.56 2.78 0 0 -7.91 10.87 0 4.58 7.91 3.15 0 -4.64 -8c2.28,-0.34 4.04,-2.3 4.04,-4.7l0 -3.06c0,-2.66 -2.15,-4.8 -4.81,-4.8l-15.97 0zm25.56 17.46l0 3.09 3.09 0 0 -3.09 -3.09 0z"/>
 </g>
</svg>
