<?xml version="1.0" encoding="UTF-8"?>
<!DOCTYPE svg PUBLIC "-//W3C//DTD SVG 1.1//EN" "http://www.w3.org/Graphics/SVG/1.1/DTD/svg11.dtd">
<!-- Creator: CorelDRAW -->
<svg xmlns="http://www.w3.org/2000/svg" xml:space="preserve" width="115.165mm" height="74.8733mm" version="1.1" style="shape-rendering:geometricPrecision; text-rendering:geometricPrecision; image-rendering:optimizeQuality; fill-rule:evenodd; clip-rule:evenodd"
viewBox="0 0 1187.02 771.73"
 xmlns:xlink="http://www.w3.org/1999/xlink"
 xmlns:xodm="http://www.corel.com/coreldraw/odm/2003">
 <defs>
  <style type="text/css">
   <![CDATA[
    .fil2 {fill:#B5FB05}
    .fil1 {fill:#A6E300;fill-rule:nonzero}
    .fil0 {fill:white;fill-rule:nonzero}
   ]]>
  </style>
 </defs>
 <g id="Capa_x0020_1">
  <metadata id="CorelCorpID_0Corel-Layer"/>
  <g id="_1395659924880">
   <path class="fil0" d="M59.15 721.67c-16.17,0 -29.18,-3.3 -39.04,-9.89 -9.86,-6.59 -16.56,-15.78 -20.11,-27.55l36.81 -18.94c4.54,11.35 13.19,17.02 25.96,17.02 10.07,0 15.6,-2.62 16.6,-7.87 0.28,-1.7 0,-3.19 -0.85,-4.47 -0.85,-1.28 -2.34,-2.41 -4.47,-3.4 -2.13,-0.99 -4.11,-1.84 -5.96,-2.55 -1.84,-0.71 -4.43,-1.56 -7.77,-2.55 -3.33,-0.99 -5.92,-1.77 -7.77,-2.34 -26.38,-9.22 -37.52,-25.53 -33.4,-48.93 2.41,-13.33 8.94,-24.04 19.57,-32.13 10.64,-8.08 23.61,-12.13 38.93,-12.13 12.77,0 23.69,2.98 32.76,8.94 9.08,5.96 15.96,14.54 20.64,25.74l-35.96 19.15c-3.69,-9.65 -10.42,-14.47 -20.21,-14.47 -7.38,0 -11.63,2.55 -12.77,7.66 -0.57,3.12 0.71,5.67 3.83,7.66 3.12,1.99 9.5,4.61 19.15,7.87 6.1,1.99 11.17,4.01 15.21,6.06 4.04,2.06 8.16,4.93 12.34,8.62 4.18,3.69 7.02,8.44 8.51,14.25 1.49,5.82 1.6,12.62 0.32,20.42 -2.55,14.47 -9.25,25.39 -20.11,32.76 -10.85,7.38 -24.93,11.06 -42.23,11.06zm275.45 -112.76c13.9,0 24.82,5.71 32.76,17.13 7.94,11.42 10.5,25.14 7.66,41.17 -2.84,16.17 -9.25,29.22 -19.25,39.15 -10,9.93 -21.88,14.89 -35.64,14.89 -13.65,0 -23.44,-4.96 -29.32,-14.93l-2.13 11.95 -39.11 0 26.42 -148.93 39.11 0 -9.01 50.74c7.52,-7.45 17.02,-11.17 28.51,-11.17zm1.56 56.17c1.13,-6.1 0.28,-10.96 -2.55,-14.57 -2.84,-3.62 -7.09,-5.42 -12.76,-5.42 -5.82,0 -10.78,1.81 -14.89,5.42 -4.11,3.62 -6.67,8.48 -7.66,14.57 -1.13,6.1 -0.28,10.96 2.55,14.57 2.84,3.62 7.09,5.43 12.77,5.43 5.82,0 10.78,-1.81 14.89,-5.43 4.11,-3.62 6.67,-8.47 7.66,-14.57zm133.61 -53.19l39.36 0 -18.72 106.38 -39.36 0 1.7 -9.36c-8.23,8.23 -18.15,12.34 -29.78,12.34 -14.18,0 -24.86,-5.53 -32.02,-16.59 -7.16,-11.06 -9.68,-24.4 -7.55,-40 2.13,-15.46 8.19,-28.62 18.19,-39.47 10,-10.85 22.37,-16.28 37.13,-16.28 13.62,0 23.26,4.96 28.93,14.89l2.13 -11.91zm-31.7 73.19c5.82,0 10.67,-1.77 14.57,-5.32 3.9,-3.55 6.42,-8.23 7.55,-14.04l0.21 -0.64c0.99,-5.82 0.14,-10.6 -2.55,-14.36 -2.69,-3.76 -6.95,-5.64 -12.76,-5.64 -5.82,0 -10.78,1.84 -14.89,5.53 -4.11,3.69 -6.67,8.51 -7.66,14.47 -0.99,5.82 -0.14,10.6 2.55,14.36 2.69,3.76 7.02,5.64 12.98,5.64zm115.95 36.17c-12.48,0 -22.76,-1.99 -30.85,-5.96 -8.08,-3.97 -14.11,-10.71 -18.08,-20.21l33.4 -15.96c3.12,8.08 8.65,12.13 16.59,12.13 5.11,0 7.94,-1.49 8.51,-4.47 0.43,-1.99 -1.06,-3.69 -4.47,-5.11 -3.4,-1.42 -7.59,-2.87 -12.55,-4.36 -4.96,-1.49 -9.82,-3.4 -14.57,-5.74 -4.75,-2.34 -8.51,-6.1 -11.28,-11.28 -2.77,-5.18 -3.51,-11.52 -2.23,-19.04 1.28,-7.37 4.5,-13.62 9.68,-18.72 5.18,-5.11 10.92,-8.65 17.23,-10.64 6.31,-1.99 13.01,-2.98 20.11,-2.98 10.21,0 19.15,2.06 26.81,6.17 7.66,4.11 13.26,10.28 16.81,18.51l-31.49 14.68c-2.55,-6.52 -6.74,-10 -12.55,-10.42 -4.25,-0.28 -6.74,1.28 -7.45,4.68 -0.43,2.13 0.53,3.9 2.87,5.32 2.34,1.42 5.43,2.52 9.25,3.3 3.83,0.78 7.94,2.02 12.34,3.72 4.4,1.7 8.37,3.72 11.91,6.06 3.55,2.34 6.21,5.99 7.98,10.96 1.77,4.96 2.02,10.92 0.74,17.87 -1.99,11.06 -7.55,19.08 -16.7,24.04 -9.15,4.96 -19.82,7.45 -32.02,7.45zm111.06 -71.91l-4.04 22.98c-0.85,5.25 0.14,8.44 2.98,9.57 2.84,1.13 8.65,1.49 17.45,1.06l-6.17 35.32c-21.28,3.26 -36.38,1.28 -45.32,-5.96 -8.94,-7.23 -11.84,-19.86 -8.72,-37.87l4.47 -25.11 -14.89 0 6.6 -37.44 14.89 0 3.19 -18.08 41.28 -11.7 -5.11 29.79 22.34 0 -6.6 37.44 -22.34 0zm114.25 -37.44l39.36 0 -18.72 106.38 -39.36 0 1.7 -9.36c-8.23,8.23 -18.15,12.34 -29.78,12.34 -14.18,0 -24.86,-5.53 -32.02,-16.59 -7.16,-11.06 -9.68,-24.4 -7.55,-40 2.13,-15.46 8.19,-28.62 18.19,-39.47 10,-10.85 22.37,-16.28 37.13,-16.28 13.62,0 23.26,4.96 28.93,14.89l2.13 -11.91zm-31.7 73.19c5.82,0 10.67,-1.77 14.57,-5.32 3.9,-3.55 6.42,-8.23 7.55,-14.04l0.21 -0.64c0.99,-5.82 0.14,-10.6 -2.55,-14.36 -2.69,-3.76 -6.95,-5.64 -12.76,-5.64 -5.82,0 -10.78,1.84 -14.89,5.53 -4.11,3.69 -6.67,8.51 -7.66,14.47 -0.99,5.82 -0.14,10.6 2.55,14.36 2.69,3.76 7.02,5.64 12.98,5.64zm-535.46 -73.19l39.11 0 -18.97 106.38 -39.11 0 1.88 -10.5c-8.23,8.97 -18.37,13.47 -30.42,13.47 -11.31,0 -19.93,-4.15 -25.81,-12.45 -5.89,-8.3 -7.48,-20.11 -4.79,-35.42l10.85 -61.49 39.11 0 -9.86 57.19c-1.7,9.54 1.88,14.29 10.74,14.29 9.22,0 14.96,-5.07 17.23,-15.25l10.04 -56.24z"/>
   <path class="fil1" d="M903.49 608.91c11.28,0 19.86,4.15 25.71,12.45 5.85,8.26 7.45,20.07 4.75,35.39l-10.85 61.52 -39.11 0 9.89 -57.27c1.7,-9.47 -1.88,-14.22 -10.67,-14.22 -9.11,0 -14.82,5.07 -17.09,15.25l-10.04 56.24 -39.11 0 18.97 -106.38 39.11 0 -1.84 10.28c8.19,-8.83 18.26,-13.26 30.28,-13.26zm134.35 -39.57l39.11 0 -26.42 148.93 -39.11 0 1.63 -9.22c-8.23,8.12 -18.16,12.2 -29.79,12.2 -14.18,0 -24.86,-5.53 -32.02,-16.59 -7.16,-11.06 -9.68,-24.4 -7.55,-40 2.13,-15.46 8.19,-28.62 18.19,-39.47 10,-10.85 22.37,-16.28 37.13,-16.28 13.69,0 23.44,4.93 29.18,14.75l9.65 -54.32zm-39.32 115.74c5.67,0 10.5,-1.7 14.47,-5.14 3.97,-3.4 6.52,-7.98 7.66,-13.69l0.39 -2.09c0.71,-5.67 -0.25,-10.25 -2.84,-13.79 -2.62,-3.51 -6.84,-5.28 -12.66,-5.28 -5.82,0 -10.78,1.84 -14.89,5.53 -4.11,3.69 -6.67,8.51 -7.66,14.47 -0.99,5.82 -0.14,10.6 2.55,14.36 2.69,3.76 7.02,5.64 12.98,5.64zm166.41 20.42c-11.42,10.5 -25.85,15.74 -43.3,15.74 -17.45,0 -30.67,-5.96 -39.68,-17.87 -9.01,-11.91 -12.16,-25.53 -9.47,-40.85 2.55,-14.75 9.57,-27.37 21.06,-37.87 11.49,-10.5 26.03,-15.74 43.61,-15.74 17.02,0 30.1,5.99 39.25,17.98 9.15,11.99 12.37,25.57 9.68,40.74 -2.7,14.75 -9.75,27.37 -21.17,37.87zm-51.7 -26.91c2.77,3.47 6.77,5.21 12.02,5.21 5.25,0 9.82,-1.74 13.72,-5.21 3.9,-3.47 6.35,-7.98 7.34,-13.51 0.99,-5.53 0.14,-10.04 -2.55,-13.51 -2.7,-3.48 -6.67,-5.21 -11.92,-5.21 -5.25,0 -9.86,1.74 -13.83,5.21 -3.97,3.47 -6.45,7.98 -7.45,13.51 -0.99,5.53 -0.11,10.04 2.66,13.51z"/>
  </g>
  <polygon class="fil2" points="830.22,386.48 824.24,285.11 647.87,185.27 835.26,110.26 785.21,0 488,114.86 493.62,237.75 649.08,327.2 354.67,446.69 365.31,563.92 "/>
  <path class="fil0" d="M14.11 745.17l0 26.56 23.58 0 0 -3.02 -19.98 0 0 -23.54 -3.6 0zm44.98 3.37l7.06 13.77 -14.11 0 7.06 -13.77zm-2.01 -3.37l-14 26.56 4.07 0 3.45 -6.75 16.96 0 3.46 6.75 4.07 0 -14 -26.56 -4.02 0zm38.11 0l0 26.56 3.6 0 0 -11.36 17.7 0 0 -3.02 -17.7 0 0 -9.15 19 0 0 -3.02 -22.6 0zm34.88 3.15l12.27 0c2.04,0 3.69,1.66 3.69,3.7l0 12.87c0,2.04 -1.66,3.7 -3.69,3.7l-12.27 0c-2.04,0 -3.69,-1.66 -3.69,-3.7l0 -12.87c0,-2.04 1.66,-3.7 3.69,-3.7zm-1.08 -3.15c-3.43,0 -6.21,2.76 -6.21,6.19l0 14.18c0,3.43 2.78,6.19 6.21,6.19l14.43 0c3.43,0 6.21,-2.76 6.21,-6.19l0 -14.18c0,-3.43 -2.78,-6.19 -6.21,-6.19l-14.43 0zm30 3.15l15.97 0c2.04,0 3.69,1.66 3.69,3.71l0 2.63c0,2.05 -1.66,3.71 -3.69,3.71l-15.97 0 0 -10.05zm-3.6 -3.15l0 26.56 3.6 0 0 -10.22 14.05 0 5.91 10.22 4.07 0 -5.99 -10.34c2.95,-0.44 5.22,-2.98 5.22,-6.08l0 -3.95c0,-3.44 -2.78,-6.2 -6.21,-6.2l-20.64 0zm32.2 0l0 26.56 3.6 0 0 -20.92 12.12 20.92 1.65 0 12.06 -20.8 0 20.8 3.6 0 0 -26.56 -3.72 0 -12.76 21.96 -12.76 -21.96 -3.79 0zm54.38 3.37l7.06 13.77 -14.11 0 7.06 -13.77zm-2.01 -3.37l-14 26.56 4.07 0 3.45 -6.75 16.96 0 3.46 6.75 4.07 0 -14 -26.56 -4.02 0zm38.11 0l0 26.56 3.6 0 0 -26.56 -3.6 0zm9.81 0l0 26.56 3.6 0 0 -22.06 19.21 22.06 4.05 0 0 -26.56 -3.6 0 0 22.06 -19.21 -22.06 -4.05 0zm32.23 0l0 3.02 11.63 0 0 23.54 3.6 0 0 -23.54 11.63 0 0 -3.02 -26.85 0zm32.18 0l0 26.56 22.81 0 0 -3.02 -19.21 0 0 -8.91 17.9 0 0 -3.02 -17.9 0 0 -8.58 19.21 0 0 -3.02 -22.81 0zm29.02 0l0 26.56 23.58 0 0 -3.02 -19.98 0 0 -23.54 -3.6 0zm28.57 0l0 26.56 3.6 0 0 -26.56 -3.6 0zm15.61 0c-3.43,0 -6.21,2.76 -6.21,6.19l0 14.18c0,3.44 2.78,6.2 6.21,6.2l14.43 0c3.43,0 6.21,-2.76 6.21,-6.2l0 -8.19 -17.82 0 0 2.62 14.22 0 0 4.92c0,2.04 -1.66,3.71 -3.69,3.71l-12.27 0c-2.04,0 -3.69,-1.66 -3.69,-3.71l0 -12.87c0,-2.04 1.66,-3.7 3.69,-3.7l12.27 0c2.04,0 3.69,1.66 3.69,3.7l0 1.52 3.6 0 0 -2.17c0,-3.43 -2.78,-6.19 -6.21,-6.19l-14.43 0zm26.4 0l0 26.56 22.81 0 0 -3.02 -19.21 0 0 -8.91 17.9 0 0 -3.02 -17.9 0 0 -8.58 19.21 0 0 -3.02 -22.81 0zm29.02 0l0 26.56 3.6 0 0 -22.06 19.21 22.06 4.05 0 0 -26.56 -3.6 0 0 22.06 -19.21 -22.06 -4.05 0zm32.23 0l0 3.02 11.63 0 0 23.54 3.6 0 0 -23.54 11.63 0 0 -3.02 -26.85 0zm32.18 0l0 26.56 22.81 0 0 -3.02 -19.21 0 0 -8.91 17.9 0 0 -3.02 -17.9 0 0 -8.58 19.21 0 0 -3.02 -22.81 0zm48.96 3.15l15.97 0c2.04,0 3.69,1.66 3.69,3.7l0 12.87c0,2.04 -1.66,3.7 -3.69,3.7l-15.97 0 0 -20.27zm-3.6 -3.15l0 26.56 20.64 0c3.43,0 6.21,-2.76 6.21,-6.19l0 -14.18c0,-3.43 -2.78,-6.19 -6.21,-6.19l-20.64 0zm32.61 0l0 26.56 22.81 0 0 -3.02 -19.21 0 0 -8.91 17.9 0 0 -3.02 -17.9 0 0 -8.58 19.21 0 0 -3.02 -22.81 0zm51.58 0c-3.43,0 -6.21,2.76 -6.21,6.19l0 14.18c0,3.43 2.78,6.19 6.21,6.19l14.43 0c3.43,0 6.21,-2.76 6.21,-6.19l0 -2.25 -3.6 0 0 1.6c0,2.04 -1.66,3.7 -3.69,3.7l-12.27 0c-2.04,0 -3.69,-1.66 -3.69,-3.7l0 -12.87c0,-2.04 1.66,-3.7 3.69,-3.7l12.27 0c2.04,0 3.69,1.66 3.69,3.7l0 1.6 3.6 0 0 -2.26c0,-3.43 -2.78,-6.19 -6.21,-6.19l-14.43 0zm34.1 3.15l12.27 0c2.04,0 3.69,1.66 3.69,3.7l0 12.87c0,2.04 -1.66,3.7 -3.69,3.7l-12.27 0c-2.04,0 -3.69,-1.66 -3.69,-3.7l0 -12.87c0,-2.04 1.66,-3.7 3.69,-3.7zm-1.08 -3.15c-3.43,0 -6.21,2.76 -6.21,6.19l0 14.18c0,3.43 2.78,6.19 6.21,6.19l14.43 0c3.43,0 6.21,-2.76 6.21,-6.19l0 -14.18c0,-3.43 -2.78,-6.19 -6.21,-6.19l-14.43 0zm26.4 0l0 26.56 3.6 0 0 -20.92 12.12 20.92 1.65 0 12.06 -20.8 0 20.8 3.6 0 0 -26.56 -3.72 0 -12.76 21.96 -12.76 -21.96 -3.79 0zm42.79 3.15l15.97 0c2.04,0 3.69,1.66 3.69,3.71l0 2.79c0,2.05 -1.66,3.71 -3.69,3.71l-15.97 0 0 -10.22zm-3.6 -3.15l0 26.56 3.6 0 0 -10.05 17.04 0c3.43,0 6.21,-2.76 6.21,-6.2l0 -4.11c0,-3.44 -2.78,-6.2 -6.21,-6.2l-20.64 0zm35.8 3.15l15.97 0c2.04,0 3.69,1.66 3.69,3.71l0 2.63c0,2.05 -1.66,3.71 -3.69,3.71l-15.97 0 0 -10.05zm-3.6 -3.15l0 26.56 3.6 0 0 -10.22 14.05 0 5.91 10.22 4.07 0 -5.99 -10.34c2.95,-0.44 5.22,-2.98 5.22,-6.08l0 -3.95c0,-3.44 -2.78,-6.2 -6.21,-6.2l-20.64 0zm48.21 3.37l7.06 13.77 -14.11 0 7.06 -13.77zm-2.01 -3.37l-14 26.56 4.07 0 3.45 -6.75 16.96 0 3.46 6.75 4.07 0 -14 -26.56 -4.02 0zm26.99 3.15l15.97 0c2.04,0 3.69,1.66 3.69,3.71l0 2.63c0,2.05 -1.66,3.71 -3.69,3.71l-15.97 0 0 -10.05zm-3.6 -3.15l0 26.56 3.6 0 0 -10.22 14.05 0 5.91 10.22 4.07 0 -5.99 -10.34c2.95,-0.44 5.22,-2.98 5.22,-6.08l0 -3.95c0,-3.44 -2.78,-6.2 -6.21,-6.2l-20.64 0zm49.36 0l12.59 16.14 0 10.43 3.6 0 0 -10.43 12.59 -16.14 -3.79 0 -10.61 13.45 -10.61 -13.45 -3.79 0zm55.41 0l-4.07 0 14 26.56 4.02 0 14 -26.56 -4.07 0 -11.94 23.19 -11.93 -23.19zm33.32 0l0 26.56 22.81 0 0 -3.02 -19.21 0 0 -8.91 17.9 0 0 -3.02 -17.9 0 0 -8.58 19.21 0 0 -3.02 -22.81 0zm29.02 0l0 26.56 3.6 0 0 -22.06 19.21 22.06 4.05 0 0 -26.56 -3.6 0 0 22.06 -19.21 -22.06 -4.05 0zm36.62 3.15l15.97 0c2.04,0 3.69,1.66 3.69,3.7l0 12.87c0,2.04 -1.66,3.7 -3.69,3.7l-15.97 0 0 -20.27zm-3.6 -3.15l0 26.56 20.64 0c3.43,0 6.21,-2.76 6.21,-6.19l0 -14.18c0,-3.43 -2.78,-6.19 -6.21,-6.19l-20.64 0zm32.61 0l0 26.56 22.81 0 0 -3.02 -19.21 0 0 -8.91 17.9 0 0 -3.02 -17.9 0 0 -8.58 19.21 0 0 -3.02 -22.81 0zm32.61 3.15l15.97 0c2.04,0 3.69,1.66 3.69,3.71l0 2.63c0,2.05 -1.66,3.71 -3.69,3.71l-15.97 0 0 -10.05zm-3.6 -3.15l0 26.56 3.6 0 0 -10.22 14.05 0 5.91 10.22 4.07 0 -5.99 -10.34c2.95,-0.44 5.22,-2.98 5.22,-6.08l0 -3.95c0,-3.44 -2.78,-6.2 -6.21,-6.2l-20.64 0zm33.03 22.57l0 3.99 3.99 0 0 -3.99 -3.99 0z"/>
 </g>
</svg>
