<?xml version="1.0" encoding="UTF-8"?>
<!DOCTYPE svg PUBLIC "-//W3C//DTD SVG 1.1//EN" "http://www.w3.org/Graphics/SVG/1.1/DTD/svg11.dtd">
<!-- Creator: CorelDRAW -->
<svg xmlns="http://www.w3.org/2000/svg" xml:space="preserve" width="132.462mm" height="75.0263mm" version="1.1" style="shape-rendering:geometricPrecision; text-rendering:geometricPrecision; image-rendering:optimizeQuality; fill-rule:evenodd; clip-rule:evenodd"
viewBox="0 0 13347.22 7559.86"
 xmlns:xlink="http://www.w3.org/1999/xlink"
 xmlns:xodm="http://www.corel.com/coreldraw/odm/2003">
 <defs>
  <style type="text/css">
   <![CDATA[
    .fil2 {fill:#B5FB05}
    .fil1 {fill:#A6E300;fill-rule:nonzero}
    .fil0 {fill:white;fill-rule:nonzero}
   ]]>
  </style>
 </defs>
 <g id="Capa_x0020_1">
  <metadata id="CorelCorpID_0Corel-Layer"/>
  <g id="_2590444942320">
   <path class="fil0" d="M578.21 7054.98c-158.07,0 -285.29,-32.24 -381.66,-96.72 -96.36,-64.47 -161.88,-154.26 -196.55,-269.34l359.82 -185.11c44.37,110.93 128.96,166.39 253.74,166.39 98.46,0 152.52,-25.65 162.24,-76.95 2.77,-16.64 0,-31.2 -8.32,-43.68 -8.32,-12.47 -22.88,-23.57 -43.68,-33.27 -20.8,-9.71 -40.2,-18.03 -58.23,-24.96 -18.03,-6.93 -43.34,-15.26 -75.91,-24.96 -32.59,-9.71 -57.9,-17.33 -75.92,-22.88 -257.9,-90.12 -366.75,-249.58 -326.53,-478.37 23.57,-130.34 87.35,-235.02 191.35,-314.06 103.99,-79.04 230.86,-118.56 380.61,-118.56 124.79,0 231.56,29.12 320.3,87.36 88.74,58.23 155.99,142.13 201.75,251.67l-351.5 187.19c-36.05,-94.29 -101.91,-141.43 -197.59,-141.43 -72.11,0 -113.7,24.96 -124.79,74.88 -5.54,30.5 6.93,55.46 37.43,74.87 30.51,19.42 92.9,45.07 187.2,76.96 59.62,19.41 109.19,39.17 148.71,59.27 39.52,20.11 79.73,48.18 120.63,84.24 40.91,36.05 68.64,82.5 83.2,139.35 14.56,56.85 15.6,123.4 3.11,199.67 -24.96,141.43 -90.47,248.19 -196.55,320.29 -106.07,72.11 -243.68,108.16 -412.86,108.16zm2692.74 -1102.33c135.88,0 242.65,55.8 320.29,167.43 77.65,111.61 102.61,245.77 74.88,402.46 -27.73,158.07 -90.47,285.63 -188.22,382.7 -97.76,97.05 -213.88,145.59 -348.38,145.59 -133.46,0 -229.13,-48.54 -286.68,-145.94l-20.8 116.82 -382.35 0 258.25 -1455.91 382.35 0 -88.06 496.04c73.5,-72.79 166.39,-109.19 278.71,-109.19zm15.25 549.09c11.09,-59.62 2.78,-107.12 -24.96,-142.48 -27.73,-35.36 -69.32,-53.03 -124.78,-53.03 -56.85,0 -105.39,17.67 -145.59,53.03 -40.21,35.36 -65.17,82.86 -74.88,142.48 -11.09,59.62 -2.77,107.11 24.96,142.47 27.73,35.36 69.32,53.04 124.79,53.04 56.85,0 105.38,-17.68 145.59,-53.04 40.2,-35.36 65.16,-82.85 74.87,-142.47zm1306.17 -519.97l384.77 0 -183.03 1039.93 -384.78 0 16.64 -91.51c-80.42,80.42 -177.47,120.63 -291.17,120.63 -138.66,0 -243,-54.08 -313.02,-162.23 -70.03,-108.16 -94.64,-238.5 -73.84,-391.02 20.8,-151.13 80.08,-279.75 177.83,-385.82 97.76,-106.07 218.74,-159.1 362.94,-159.1 133.12,0 227.4,48.53 282.86,145.59l20.81 -116.47zm-309.91 715.48c56.85,0 104.34,-17.34 142.47,-52 38.14,-34.66 62.74,-80.42 73.84,-137.27l2.08 -6.24c9.71,-56.85 1.39,-103.64 -24.96,-140.39 -26.34,-36.75 -67.93,-55.12 -124.78,-55.12 -56.85,0 -105.39,18.03 -145.59,54.08 -40.21,36.04 -65.17,83.19 -74.88,141.43 -9.7,56.85 -1.39,103.64 24.96,140.39 26.34,36.74 68.63,55.12 126.87,55.12zm1133.53 353.58c-122.02,0 -222.54,-19.42 -301.58,-58.24 -79.04,-38.82 -137.96,-104.68 -176.79,-197.59l326.54 -155.99c30.5,79.04 84.58,118.56 162.23,118.56 49.92,0 77.65,-14.56 83.19,-43.68 4.16,-19.42 -10.4,-36.05 -43.67,-49.92 -33.28,-13.86 -74.18,-28.08 -122.72,-42.64 -48.53,-14.55 -96.02,-33.27 -142.47,-56.16 -46.45,-22.87 -83.19,-59.62 -110.23,-110.23 -27.03,-50.6 -34.32,-112.65 -21.84,-186.15 12.47,-72.1 44.02,-133.11 94.64,-183.03 50.6,-49.92 106.76,-84.58 168.47,-103.99 61.71,-19.42 127.22,-29.12 196.55,-29.12 99.84,0 187.19,20.1 262.06,60.32 74.88,40.2 129.65,100.52 164.31,180.95l-307.82 143.51c-24.96,-63.78 -65.87,-97.75 -122.72,-101.91 -41.59,-2.77 -65.86,12.47 -72.79,45.76 -4.16,20.8 5.2,38.13 28.07,51.99 22.88,13.86 53.04,24.62 90.47,32.24 37.44,7.63 77.65,19.76 120.63,36.4 42.99,16.64 81.81,36.4 116.47,59.28 34.67,22.87 60.67,58.58 78,107.11 17.33,48.53 19.76,106.77 7.28,174.71 -19.41,108.15 -73.83,186.49 -163.27,235.02 -89.44,48.54 -193.78,72.8 -313.02,72.8zm1085.7 -703l-39.52 224.63c-8.32,51.3 1.39,82.5 29.12,93.59 27.73,11.09 84.58,14.56 170.55,10.4l-60.32 345.26c-207.99,31.89 -355.66,12.47 -443.01,-58.24 -87.36,-70.72 -115.79,-194.12 -85.28,-370.21l43.67 -245.43 -145.59 0 64.48 -366.05 145.59 0 31.2 -176.8 403.5 -114.39 -49.92 291.18 218.38 0 -64.48 366.05 -218.38 0zm1116.89 -366.05l384.77 0 -183.03 1039.93 -384.78 0 16.64 -91.51c-80.42,80.42 -177.47,120.63 -291.17,120.63 -138.66,0 -243,-54.08 -313.02,-162.23 -70.03,-108.16 -94.64,-238.5 -73.84,-391.02 20.8,-151.13 80.08,-279.75 177.83,-385.82 97.76,-106.07 218.74,-159.1 362.94,-159.1 133.12,0 227.4,48.53 282.86,145.59l20.81 -116.47zm-309.91 715.48c56.85,0 104.34,-17.34 142.47,-52 38.14,-34.66 62.74,-80.42 73.84,-137.27l2.08 -6.24c9.71,-56.85 1.39,-103.64 -24.96,-140.39 -26.34,-36.75 -67.93,-55.12 -124.78,-55.12 -56.85,0 -105.39,18.03 -145.59,54.08 -40.21,36.04 -65.17,83.19 -74.88,141.43 -9.7,56.85 -1.39,103.64 24.96,140.39 26.34,36.74 68.63,55.12 126.87,55.12zm-5234.69 -715.48l382.34 0 -185.45 1039.93 -382.35 0 18.38 -102.61c-80.43,87.7 -179.57,131.73 -297.42,131.73 -110.59,0 -194.81,-40.56 -252.36,-121.67 -57.55,-81.11 -73.14,-196.55 -46.79,-346.3l106.07 -601.08 382.34 0 -96.37 559.13c-16.64,93.25 18.38,139.7 105.04,139.7 90.13,0 146.29,-49.57 168.48,-149.06l98.1 -549.77z"/>
   <path class="fil1" d="M8832.53 5952.65c110.23,0 194.12,40.56 251.31,121.67 57.2,80.77 72.8,196.21 46.45,345.95l-106.07 601.43 -382.35 0 96.72 -559.83c16.64,-92.56 -18.38,-139.01 -104.34,-139.01 -89.09,0 -144.91,49.58 -167.08,149.06l-98.1 549.78 -382.35 0 185.46 -1039.93 382.34 0 -18.03 100.52c80.08,-86.31 178.52,-129.64 296.04,-129.64zm1313.44 -386.86l382.34 0 -258.24 1455.91 -382.35 0 15.95 -90.13c-80.43,79.39 -177.48,119.25 -291.18,119.25 -138.66,0 -243,-54.08 -313.02,-162.23 -70.03,-108.16 -94.64,-238.5 -73.84,-391.02 20.8,-151.13 80.08,-279.75 177.83,-385.82 97.76,-106.07 218.74,-159.1 362.94,-159.1 133.81,0 229.13,48.18 285.29,144.2l94.29 -531.06zm-384.43 1131.45c55.46,0 102.61,-16.65 141.43,-50.27 38.82,-33.27 63.78,-77.99 74.88,-133.8l3.81 -20.45c6.93,-55.46 -2.43,-100.18 -27.73,-134.84 -25.65,-34.32 -66.91,-51.65 -123.76,-51.65 -56.85,0 -105.38,18.03 -145.58,54.08 -40.21,36.04 -65.17,83.19 -74.88,141.43 -9.71,56.85 -1.39,103.64 24.96,140.39 26.34,36.74 68.63,55.12 126.87,55.12zm1626.8 199.66c-111.62,102.61 -252.7,153.92 -423.25,153.92 -170.55,0 -299.85,-58.24 -387.9,-174.71 -88.06,-116.47 -118.9,-249.58 -92.56,-399.33 24.96,-144.21 93.6,-267.62 205.91,-370.22 112.31,-102.61 254.44,-153.91 426.38,-153.91 166.39,0 294.3,58.58 383.73,175.75 89.44,117.17 120.98,249.93 94.64,398.29 -26.35,144.2 -95.33,267.61 -206.95,370.21zm-505.42 -263.1c27.04,33.97 66.21,50.96 117.52,50.96 51.3,0 96.02,-16.99 134.15,-50.96 38.14,-33.97 62.05,-78 71.76,-132.07 9.7,-54.08 1.38,-98.1 -24.96,-132.07 -26.35,-33.98 -65.17,-50.97 -116.48,-50.97 -51.3,0 -96.36,16.99 -135.18,50.97 -38.82,33.97 -63.1,77.99 -72.8,132.07 -9.7,54.07 -1.04,98.1 26,132.07zm747.72 387.9l117.85 -674.22 147.68 -844.08 385.47 -17.34 -150.45 860.03 -118.2 675.61 -382.34 0zm1500.63 -124.79c-111.62,102.61 -252.7,153.92 -423.25,153.92 -170.55,0 -299.85,-58.24 -387.9,-174.71 -88.06,-116.47 -118.9,-249.58 -92.56,-399.33 24.96,-144.21 93.6,-267.62 205.91,-370.22 112.31,-102.61 254.44,-153.91 426.38,-153.91 166.39,0 294.3,58.58 383.73,175.75 89.44,117.17 120.98,249.93 94.64,398.29 -26.35,144.2 -95.33,267.61 -206.95,370.21zm-505.42 -263.1c27.04,33.97 66.21,50.96 117.52,50.96 51.3,0 96.02,-16.99 134.15,-50.96 38.14,-33.97 62.05,-78 71.76,-132.07 9.7,-54.08 1.38,-98.1 -24.96,-132.07 -26.35,-33.98 -65.17,-50.97 -116.48,-50.97 -51.3,0 -96.36,16.99 -135.18,50.97 -38.82,33.97 -63.1,77.99 -72.8,132.07 -9.7,54.07 -1.04,98.1 26,132.07z"/>
  </g>
  <polygon class="fil2" points="8987.64,3778.18 8929.2,2787.19 7205.06,1811.17 9036.97,1077.87 8547.69,0 5642.16,1122.83 5697.07,2324.26 7216.85,3198.66 4338.74,4366.86 4442.75,5512.86 "/>
  <path class="fil0" d="M336.72 7269.35l0 290.51 257.88 0 0 -33.07 -218.55 0 0 -257.44 -39.33 0zm491.92 36.8l77.17 150.55 -154.34 0 77.16 -150.55zm-21.97 -36.8l-153.08 290.51 44.55 0 37.77 -73.82 185.47 0 37.84 73.82 44.48 0 -153.08 -290.51 -43.94 0zm416.76 0l0 290.51 39.33 0 0 -124.24 193.52 0 0 -33.08 -193.52 0 0 -100.11 207.82 0 0 -33.08 -247.15 0zm381.39 34.42l134.23 0c22.28,0 40.38,18.1 40.38,40.45l0 140.79c0,22.35 -18.1,40.45 -40.38,40.45l-134.23 0c-22.27,0 -40.38,-18.1 -40.38,-40.45l0 -140.79c0,-22.35 18.11,-40.45 40.38,-40.45zm-11.77 -34.42c-37.54,0 -67.93,30.17 -67.93,67.71l0 155.08c0,37.54 30.39,67.71 67.93,67.71l157.76 0c37.54,0 67.93,-30.17 67.93,-67.71l0 -155.08c0,-37.54 -30.39,-67.71 -67.93,-67.71l-157.76 0zm328.04 34.42l174.6 0c22.28,0 40.38,18.18 40.38,40.6l0 28.75c0,22.42 -18.1,40.6 -40.38,40.6l-174.6 0 0 -109.94zm-39.33 -34.42l0 290.51 39.33 0 0 -111.74 153.67 0 64.66 111.74 44.47 0 -65.55 -113.08c32.25,-4.84 57.05,-32.55 57.05,-66.44l0 -43.2c0,-37.62 -30.39,-67.79 -67.93,-67.79l-225.7 0zm352.19 0l0 290.51 39.33 0 0 -228.75 132.59 228.75 18.03 0 131.85 -227.48 0 227.48 39.33 0 0 -290.51 -40.67 0 -139.53 240.16 -139.52 -240.16 -41.41 0zm594.71 36.8l77.17 150.55 -154.34 0 77.16 -150.55zm-21.97 -36.8l-153.08 290.51 44.55 0 37.77 -73.82 185.47 0 37.84 73.82 44.48 0 -153.08 -290.51 -43.94 0zm416.76 0l0 290.51 39.33 0 0 -290.51 -39.33 0zm107.26 0l0 290.51 39.33 0 0 -241.27 210.06 241.27 44.24 0 0 -290.51 -39.33 0 0 241.28 -210.06 -241.28 -44.24 0zm352.41 0l0 33.08 127.15 0 0 257.43 39.33 0 0 -257.43 127.15 0 0 -33.08 -293.63 0zm351.96 0l0 290.51 249.39 0 0 -33.07 -210.06 0 0 -97.43 195.76 0 0 -33.08 -195.76 0 0 -93.85 210.06 0 0 -33.08 -249.39 0zm317.32 0l0 290.51 257.88 0 0 -33.07 -218.55 0 0 -257.44 -39.33 0zm312.4 0l0 290.51 39.33 0 0 -290.51 -39.33 0zm170.73 0c-37.54,0 -67.93,30.17 -67.93,67.71l0 155.01c0,37.61 30.39,67.78 67.93,67.78l157.76 0c37.54,0 67.93,-30.17 67.93,-67.78l0 -89.54 -194.87 0 0 28.61 155.54 0 0 53.78c0,22.35 -18.1,40.53 -40.38,40.53l-134.23 0c-22.27,0 -40.38,-18.18 -40.38,-40.53l0 -140.71c0,-22.35 18.11,-40.45 40.38,-40.45l134.23 0c22.28,0 40.38,18.1 40.38,40.45l0 16.61 39.33 0 0 -23.76c0,-37.54 -30.39,-67.71 -67.93,-67.71l-157.76 0zm288.72 0l0 290.51 249.39 0 0 -33.07 -210.06 0 0 -97.43 195.76 0 0 -33.08 -195.76 0 0 -93.85 210.06 0 0 -33.08 -249.39 0zm317.32 0l0 290.51 39.33 0 0 -241.27 210.06 241.27 44.24 0 0 -290.51 -39.33 0 0 241.28 -210.06 -241.28 -44.24 0zm352.41 0l0 33.08 127.15 0 0 257.43 39.33 0 0 -257.43 127.15 0 0 -33.08 -293.63 0zm351.96 0l0 290.51 249.39 0 0 -33.07 -210.06 0 0 -97.43 195.76 0 0 -33.08 -195.76 0 0 -93.85 210.06 0 0 -33.08 -249.39 0zm535.42 34.42l174.6 0c22.28,0 40.38,18.1 40.38,40.45l0 140.79c0,22.35 -18.1,40.45 -40.38,40.45l-174.6 0 0 -221.68zm-39.33 -34.42l0 290.51 225.7 0c37.54,0 67.93,-30.17 67.93,-67.71l0 -155.08c0,-37.54 -30.39,-67.71 -67.93,-67.71l-225.7 0zm356.65 0l0 290.51 249.39 0 0 -33.07 -210.06 0 0 -97.43 195.76 0 0 -33.08 -195.76 0 0 -93.85 210.06 0 0 -33.08 -249.39 0zm564.03 0c-37.54,0 -67.93,30.17 -67.93,67.71l0 155.08c0,37.54 30.39,67.71 67.93,67.71l157.76 0c37.54,0 67.93,-30.17 67.93,-67.71l0 -24.65 -39.33 0 0 17.5c0,22.35 -18.1,40.45 -40.38,40.45l-134.23 0c-22.27,0 -40.38,-18.1 -40.38,-40.45l0 -140.79c0,-22.35 18.11,-40.45 40.38,-40.45l134.23 0c22.28,0 40.38,18.1 40.38,40.45l0 17.5 39.33 0 0 -24.66c0,-37.54 -30.39,-67.71 -67.93,-67.71l-157.76 0zm372.89 34.42l134.23 0c22.28,0 40.38,18.1 40.38,40.45l0 140.79c0,22.35 -18.1,40.45 -40.38,40.45l-134.23 0c-22.27,0 -40.38,-18.1 -40.38,-40.45l0 -140.79c0,-22.35 18.11,-40.45 40.38,-40.45zm-11.77 -34.42c-37.54,0 -67.93,30.17 -67.93,67.71l0 155.08c0,37.54 30.39,67.71 67.93,67.71l157.76 0c37.54,0 67.93,-30.17 67.93,-67.71l0 -155.08c0,-37.54 -30.39,-67.71 -67.93,-67.71l-157.76 0zm288.72 0l0 290.51 39.33 0 0 -228.75 132.59 228.75 18.03 0 131.85 -227.48 0 227.48 39.33 0 0 -290.51 -40.67 0 -139.53 240.16 -139.52 -240.16 -41.41 0zm467.93 34.42l174.6 0c22.28,0 40.38,18.18 40.38,40.6l0 30.54c0,22.42 -18.1,40.6 -40.38,40.6l-174.6 0 0 -111.74zm-39.33 -34.42l0 290.51 39.33 0 0 -109.94 186.37 0c37.54,0 67.93,-30.17 67.93,-67.78l0 -44.99c0,-37.62 -30.39,-67.79 -67.93,-67.79l-225.7 0zm391.51 34.42l174.6 0c22.28,0 40.38,18.18 40.38,40.6l0 28.75c0,22.42 -18.1,40.6 -40.38,40.6l-174.6 0 0 -109.94zm-39.33 -34.42l0 290.51 39.33 0 0 -111.74 153.67 0 64.66 111.74 44.47 0 -65.55 -113.08c32.25,-4.84 57.05,-32.55 57.05,-66.44l0 -43.2c0,-37.62 -30.39,-67.79 -67.93,-67.79l-225.7 0zm527.23 36.8l77.17 150.55 -154.34 0 77.16 -150.55zm-21.97 -36.8l-153.08 290.51 44.55 0 37.77 -73.82 185.47 0 37.84 73.82 44.48 0 -153.08 -290.51 -43.94 0zm295.19 34.42l174.6 0c22.28,0 40.38,18.18 40.38,40.6l0 28.75c0,22.42 -18.1,40.6 -40.38,40.6l-174.6 0 0 -109.94zm-39.33 -34.42l0 290.51 39.33 0 0 -111.74 153.67 0 64.66 111.74 44.47 0 -65.55 -113.08c32.25,-4.84 57.05,-32.55 57.05,-66.44l0 -43.2c0,-37.62 -30.39,-67.79 -67.93,-67.79l-225.7 0zm539.83 0l137.72 176.47 0 114.04 39.34 0 0 -114.04 137.72 -176.47 -41.41 0 -115.98 147.12 -115.98 -147.12 -41.41 0zm605.97 0l-44.55 0 153.08 290.51 43.94 0 153.08 -290.51 -44.48 0 -130.58 253.57 -130.5 -253.57zm364.4 0l0 290.51 249.39 0 0 -33.07 -210.06 0 0 -97.43 195.76 0 0 -33.08 -195.76 0 0 -93.85 210.06 0 0 -33.08 -249.39 0zm317.32 0l0 290.51 39.33 0 0 -241.27 210.06 241.27 44.24 0 0 -290.51 -39.33 0 0 241.28 -210.06 -241.28 -44.24 0zm400.45 34.42l174.6 0c22.28,0 40.38,18.1 40.38,40.45l0 140.79c0,22.35 -18.1,40.45 -40.38,40.45l-174.6 0 0 -221.68zm-39.33 -34.42l0 290.51 225.7 0c37.54,0 67.93,-30.17 67.93,-67.71l0 -155.08c0,-37.54 -30.39,-67.71 -67.93,-67.71l-225.7 0zm356.65 0l0 290.51 249.39 0 0 -33.07 -210.06 0 0 -97.43 195.76 0 0 -33.08 -195.76 0 0 -93.85 210.06 0 0 -33.08 -249.39 0zm356.65 34.42l174.6 0c22.28,0 40.38,18.18 40.38,40.6l0 28.75c0,22.42 -18.1,40.6 -40.38,40.6l-174.6 0 0 -109.94zm-39.33 -34.42l0 290.51 39.33 0 0 -111.74 153.67 0 64.66 111.74 44.47 0 -65.55 -113.08c32.25,-4.84 57.05,-32.55 57.05,-66.44l0 -43.2c0,-37.62 -30.39,-67.79 -67.93,-67.79l-225.7 0zm361.19 246.79l0 43.65 43.65 0 0 -43.65 -43.65 0z"/>
 </g>
</svg>
