<?xml version="1.0" encoding="UTF-8"?>
<!DOCTYPE svg PUBLIC "-//W3C//DTD SVG 1.1//EN" "http://www.w3.org/Graphics/SVG/1.1/DTD/svg11.dtd">
<!-- Creator: CorelDRAW -->
<svg xmlns="http://www.w3.org/2000/svg" xml:space="preserve" width="132.462mm" height="20.5809mm" version="1.1" style="shape-rendering:geometricPrecision; text-rendering:geometricPrecision; image-rendering:optimizeQuality; fill-rule:evenodd; clip-rule:evenodd"
viewBox="0 0 39363.92 6116.07"
 xmlns:xlink="http://www.w3.org/1999/xlink"
 xmlns:xodm="http://www.corel.com/coreldraw/odm/2003">
 <defs>
  <style type="text/css">
   <![CDATA[
    .fil1 {fill:#A6E300;fill-rule:nonzero}
    .fil0 {fill:white;fill-rule:nonzero}
   ]]>
  </style>
 </defs>
 <g id="Capa_x0020_1">
  <metadata id="CorelCorpID_0Corel-Layer"/>
  <g id="_2670625771248">
   <path class="fil0" d="M1705.26 4627.09c-466.17,0 -841.38,-95.1 -1125.6,-285.26 -284.19,-190.13 -477.41,-454.94 -579.66,-794.34l1061.2 -545.94c130.84,327.16 380.32,490.72 748.34,490.72 290.37,0 449.83,-75.66 478.48,-226.95 8.17,-49.06 0,-92 -24.55,-128.82 -24.55,-36.79 -67.49,-69.51 -128.82,-98.13 -61.34,-28.65 -118.57,-53.13 -171.74,-73.58 -53.16,-20.45 -127.81,-44.99 -223.89,-73.61 -96.11,-28.65 -170.76,-51.11 -223.92,-67.49 -760.61,-265.79 -1081.62,-736.07 -963.02,-1410.83 69.51,-384.39 257.62,-693.12 564.33,-926.23 306.68,-233.1 680.85,-349.65 1122.51,-349.65 368.05,0 682.93,85.88 944.65,257.65 261.72,171.74 460.05,419.16 595,742.22l-1036.66 552.06c-106.33,-278.09 -300.56,-417.11 -582.73,-417.11 -212.66,0 -335.33,73.61 -368.05,220.83 -16.34,89.95 20.45,163.56 110.4,220.8 89.98,57.27 273.99,132.93 552.09,226.98 175.84,57.24 322.02,115.51 438.57,174.8 116.55,59.32 235.15,142.11 355.77,248.44 120.65,106.33 202.43,243.32 245.38,410.99 42.94,167.66 46,363.92 9.18,588.85 -73.61,417.11 -266.83,731.97 -579.66,944.62 -312.83,212.66 -718.68,318.98 -1217.6,318.98zm7941.51 -3251.01c400.74,0 715.62,164.57 944.62,493.78 229,329.18 302.61,724.83 220.83,1186.91 -81.78,466.17 -266.83,842.39 -555.12,1128.66 -288.32,286.24 -630.78,429.38 -1027.44,429.38 -393.6,0 -675.77,-143.15 -845.49,-430.42l-61.34 344.54 -1127.65 0 761.62 -4293.78 1127.65 0 -259.7 1462.92c216.76,-214.68 490.72,-322.02 821.98,-322.02l0.03 0.03zm44.96 1619.41c32.72,-175.84 8.2,-315.92 -73.61,-420.2 -81.78,-104.28 -204.45,-156.4 -368.02,-156.4 -167.66,0 -310.81,52.12 -429.38,156.4 -118.6,104.28 -192.21,244.36 -220.83,420.2 -32.72,175.81 -8.17,315.86 73.61,420.14 81.78,104.28 204.45,156.43 368.05,156.43 167.66,0 310.78,-52.15 429.38,-156.43 118.57,-104.28 192.18,-244.34 220.8,-420.14zm3852.22 -1533.53l1134.78 0 -539.78 3066.97 -1134.81 0 49.06 -269.89c-237.17,237.17 -523.41,355.77 -858.74,355.77 -408.94,0 -716.66,-159.49 -923.17,-478.45 -206.53,-318.98 -279.1,-703.38 -217.77,-1153.18 61.34,-445.73 236.16,-825.04 524.45,-1137.87 288.32,-312.83 645.1,-469.24 1070.39,-469.24 392.59,0 670.66,143.12 834.22,429.38l61.37 -343.5zm-914.01 2110.1c167.66,0 307.72,-51.14 420.17,-153.37 112.48,-102.23 185.05,-237.17 217.77,-404.84l6.12 -18.37c28.65,-167.66 4.1,-305.67 -73.61,-414.05 -77.68,-108.38 -200.35,-162.55 -368.02,-162.55 -167.66,0 -310.81,53.16 -429.38,159.49 -118.6,106.3 -192.21,245.35 -220.83,417.11 -28.62,167.63 -4.1,305.64 73.61,414.02 77.68,108.35 202.4,162.55 374.17,162.55zm3343.04 1042.78c-359.88,0 -656.33,-57.27 -889.44,-171.77 -233.1,-114.5 -406.89,-308.73 -521.39,-582.73l963.05 -460.05c89.95,233.1 249.45,349.65 478.45,349.65 147.22,0 229,-42.94 245.35,-128.82 12.27,-57.27 -30.67,-106.33 -128.79,-147.22 -98.16,-40.89 -218.78,-82.82 -361.93,-125.76 -143.12,-42.91 -283.18,-98.13 -420.17,-165.61 -137,-67.46 -245.35,-175.84 -325.11,-325.08 -79.73,-149.24 -101.22,-332.24 -64.4,-549 36.79,-212.63 129.83,-392.56 279.1,-539.78 149.24,-147.22 314.85,-249.45 496.84,-306.68 181.99,-57.27 375.21,-85.88 579.66,-85.88 294.44,0 552.06,59.29 772.89,177.89 220.83,118.57 382.37,296.46 484.6,533.66l-907.83 423.23c-73.61,-188.11 -194.26,-288.29 -361.93,-300.56 -122.67,-8.17 -194.23,36.79 -214.68,134.95 -12.27,61.34 15.33,112.45 82.79,153.34 67.49,40.89 156.43,72.6 266.83,95.1 110.43,22.5 229,58.28 355.77,107.34 126.77,49.06 241.27,107.34 343.5,174.83 102.26,67.46 178.93,172.75 230.04,315.86 51.11,143.12 58.28,314.88 21.46,515.27 -57.24,318.96 -217.74,550.01 -481.51,693.12 -263.77,143.15 -571.49,214.71 -923.17,214.71zm3201.97 -2073.28l-116.55 662.46c-24.55,151.29 4.1,243.32 85.88,276.01 81.75,32.72 249.42,42.94 502.96,30.67l-177.89 1018.26c-613.39,94.06 -1048.9,36.79 -1306.52,-171.77 -257.65,-208.56 -341.48,-572.5 -251.5,-1091.84l128.79 -723.79 -429.38 0 190.16 -1079.57 429.38 0 92 -521.42 1190 -337.35 -147.22 858.77 644.06 0 -190.16 1079.57 -644.03 0zm3293.95 -1079.57l1134.78 0 -539.78 3066.97 -1134.81 0 49.06 -269.89c-237.17,237.17 -523.41,355.77 -858.74,355.77 -408.94,0 -716.66,-159.49 -923.17,-478.45 -206.53,-318.98 -279.1,-703.38 -217.77,-1153.18 61.34,-445.73 236.16,-825.04 524.45,-1137.87 288.32,-312.83 645.1,-469.24 1070.39,-469.24 392.59,0 670.66,143.12 834.22,429.38l61.37 -343.5zm-914.01 2110.1c167.66,0 307.72,-51.14 420.17,-153.37 112.48,-102.23 185.05,-237.17 217.77,-404.84l6.12 -18.37c28.65,-167.66 4.1,-305.67 -73.61,-414.05 -77.68,-108.38 -200.35,-162.55 -368.02,-162.55 -167.66,0 -310.81,53.16 -429.38,159.49 -118.6,106.3 -192.21,245.35 -220.83,417.11 -28.62,167.63 -4.1,305.64 73.61,414.02 77.68,108.35 202.4,162.55 374.17,162.55zm-15438.25 -2110.1l1127.62 0 -546.95 3066.97 -1127.65 0 54.2 -302.61c-237.2,258.66 -529.59,388.49 -877.16,388.49 -326.15,0 -574.55,-119.61 -744.27,-358.84 -169.72,-239.22 -215.72,-579.66 -138.01,-1021.32l312.83 -1772.69 1127.62 0 -284.22 1648.98c-49.06,275 54.2,412 309.77,412 265.82,0 431.43,-146.18 496.87,-439.61l289.33 -1621.37z"/>
   <path class="fil1" d="M26049.12 1376.09c325.11,0 572.5,119.61 741.18,358.84 168.7,238.21 214.71,578.65 137,1020.28l-312.83 1773.73 -1127.65 0 285.26 -1651.03c49.06,-272.98 -54.2,-409.98 -307.72,-409.98 -262.76,0 -427.36,146.21 -492.77,439.61l-289.33 1621.4 -1127.65 0 546.98 -3066.97 1127.62 0 -53.16 296.46c236.16,-254.56 526.5,-382.34 873.09,-382.34zm3873.61 -1140.93l1127.62 0 -761.62 4293.78 -1127.65 0 47.04 -265.82c-237.2,234.14 -523.44,351.7 -858.77,351.7 -408.94,0 -716.66,-159.49 -923.17,-478.45 -206.53,-318.98 -279.1,-703.38 -217.77,-1153.18 61.34,-445.73 236.16,-825.04 524.45,-1137.87 288.32,-312.83 645.1,-469.24 1070.39,-469.24 394.64,0 675.77,142.11 841.38,425.28l278.09 -1566.22zm-1133.77 3336.89c163.56,0 302.61,-49.09 417.11,-148.26 114.5,-98.13 188.11,-230.01 220.83,-394.62l11.23 -60.3c20.45,-163.56 -7.16,-295.45 -81.78,-397.68 -75.66,-101.22 -197.32,-152.33 -364.99,-152.33 -167.66,0 -310.78,53.16 -429.35,159.49 -118.6,106.3 -192.21,245.35 -220.83,417.11 -28.65,167.63 -4.1,305.64 73.61,414.02 77.68,108.35 202.4,162.55 374.17,162.55zm4797.82 588.82c-329.21,302.61 -745.28,453.93 -1248.27,453.93 -502.99,0 -884.33,-171.77 -1143.99,-515.27 -259.7,-343.5 -350.66,-736.07 -272.98,-1177.69 73.61,-425.31 276.04,-789.26 607.27,-1091.87 331.23,-302.61 750.39,-453.9 1257.48,-453.9 490.72,0 867.95,172.78 1131.72,518.33 263.77,345.55 356.79,737.11 279.1,1174.6 -77.71,425.28 -281.15,789.23 -610.33,1091.84l0 0.03zm-1490.62 -775.92c79.76,100.18 195.27,150.28 346.59,150.28 151.29,0 283.18,-50.1 395.63,-150.28 112.48,-100.18 183,-230.04 211.65,-389.47 28.62,-159.49 4.07,-289.33 -73.61,-389.5 -77.71,-100.21 -192.21,-150.31 -343.53,-150.31 -151.29,0 -284.19,50.1 -398.69,150.31 -114.5,100.18 -186.09,230.01 -214.71,389.5 -28.62,159.43 -3.06,289.3 76.67,389.47zm2205.2 1143.99l347.57 -1988.41 435.54 -2489.38 1136.83 -51.14 -443.71 2536.43 -348.61 1992.51 -1127.62 0zm4425.7 -368.05c-329.21,302.61 -745.28,453.93 -1248.27,453.93 -502.99,0 -884.33,-171.77 -1143.99,-515.27 -259.7,-343.5 -350.66,-736.07 -272.98,-1177.69 73.61,-425.31 276.04,-789.26 607.27,-1091.87 331.23,-302.61 750.39,-453.9 1257.48,-453.9 490.72,0 867.95,172.78 1131.72,518.33 263.77,345.55 356.79,737.11 279.1,1174.6 -77.71,425.28 -281.15,789.23 -610.33,1091.84l0 0.03zm-1490.59 -775.92c79.76,100.18 195.27,150.28 346.59,150.28 151.29,0 283.18,-50.1 395.63,-150.28 112.48,-100.18 183,-230.04 211.65,-389.47 28.62,-159.49 4.07,-289.33 -73.61,-389.5 -77.71,-100.21 -192.21,-150.31 -343.53,-150.31 -151.29,0 -284.19,50.1 -398.69,150.31 -114.5,100.18 -186.09,230.01 -214.71,389.5 -28.62,159.43 -3.06,289.3 76.67,389.47z"/>
  </g>
  <path class="fil0" d="M993.06 5259.3l0 856.78 760.55 0 0 -97.53 -644.57 0 0 -759.25 -115.99 0zm1450.8 108.56l227.6 444.01 -455.18 0 227.57 -444.01zm-64.81 -108.56l-451.46 856.78 131.38 0 111.38 -217.71 547.01 0 111.59 217.71 131.17 0 -451.46 -856.78 -129.6 0zm1229.13 0l0 856.78 115.99 0 0 -366.41 570.75 0 0 -97.56 -570.75 0 0 -295.24 612.92 0 0 -97.56 -728.9 0zm1124.8 101.51l395.86 0c65.7,0 119.08,53.37 119.08,119.28l0 415.21c0,65.91 -53.37,119.28 -119.08,119.28l-395.86 0c-65.68,0 -119.08,-53.37 -119.08,-119.28l0 -415.21c0,-65.91 53.4,-119.28 119.08,-119.28zm-34.71 -101.51c-110.73,0 -200.35,88.97 -200.35,199.7l0 457.38c0,110.73 89.63,199.7 200.35,199.7l465.28 0c110.73,0 200.35,-88.97 200.35,-199.7l0 -457.38c0,-110.73 -89.63,-199.7 -200.35,-199.7l-465.28 0zm967.47 101.51l514.94 0c65.7,0 119.08,53.61 119.08,119.73l0 84.78c0,66.12 -53.37,119.73 -119.08,119.73l-514.94 0 0 -324.24zm-115.99 -101.51l0 856.78 115.99 0 0 -329.53 453.22 0 190.7 329.53 131.14 0 -193.31 -333.49c95.12,-14.26 168.26,-95.99 168.26,-195.96l0 -127.4c0,-110.96 -89.63,-199.94 -200.35,-199.94l-665.64 0zm1038.68 0l0 856.78 115.99 0 0 -674.64 391.05 674.64 53.16 0 388.85 -670.9 0 670.9 115.99 0 0 -856.78 -119.94 0 -411.49 708.28 -411.46 -708.28 -122.14 0zm1753.94 108.56l227.6 444.01 -455.18 0 227.57 -444.01zm-64.81 -108.56l-451.46 856.78 131.38 0 111.38 -217.71 547.01 0 111.59 217.71 131.17 0 -451.46 -856.78 -129.6 0zm1229.13 0l0 856.78 115.99 0 0 -856.78 -115.99 0zm316.34 0l0 856.78 115.99 0 0 -711.55 619.52 711.55 130.49 0 0 -856.78 -115.99 0 0 711.58 -619.52 -711.58 -130.49 0zm1039.33 0l0 97.56 375 0 0 759.22 115.99 0 0 -759.22 375 0 0 -97.56 -865.99 0zm1037.99 0l0 856.78 735.5 0 0 -97.53 -619.52 0 0 -287.34 577.35 0 0 -97.56 -577.35 0 0 -276.79 619.52 0 0 -97.56 -735.5 0zm935.86 0l0 856.78 760.55 0 0 -97.53 -644.57 0 0 -759.25 -115.99 0zm921.35 0l0 856.78 115.99 0 0 -856.78 -115.99 0zm503.5 0c-110.73,0 -200.35,88.97 -200.35,199.7l0 457.17c0,110.93 89.63,199.91 200.35,199.91l465.28 0c110.73,0 200.35,-88.97 200.35,-199.91l0 -264.07 -574.7 0 0 84.37 458.72 0 0 158.6c0,65.91 -53.37,119.52 -119.08,119.52l-395.86 0c-65.68,0 -119.08,-53.61 -119.08,-119.52l0 -414.97c0,-65.91 53.4,-119.28 119.08,-119.28l395.86 0c65.7,0 119.08,53.37 119.08,119.28l0 48.97 115.99 0 0 -70.07c0,-110.73 -89.63,-199.7 -200.35,-199.7l-465.28 0zm851.52 0l0 856.78 735.5 0 0 -97.53 -619.52 0 0 -287.34 577.35 0 0 -97.56 -577.35 0 0 -276.79 619.52 0 0 -97.56 -735.5 0zm935.86 0l0 856.78 115.99 0 0 -711.55 619.52 711.55 130.49 0 0 -856.78 -115.99 0 0 711.58 -619.52 -711.58 -130.49 0zm1039.33 0l0 97.56 375 0 0 759.22 115.99 0 0 -759.22 375 0 0 -97.56 -865.99 0zm1037.99 0l0 856.78 735.5 0 0 -97.53 -619.52 0 0 -287.34 577.35 0 0 -97.56 -577.35 0 0 -276.79 619.52 0 0 -97.56 -735.5 0zm1579.05 101.51l514.94 0c65.7,0 119.08,53.37 119.08,119.28l0 415.21c0,65.91 -53.37,119.28 -119.08,119.28l-514.94 0 0 -653.78zm-115.99 -101.51l0 856.78 665.64 0c110.73,0 200.35,-88.97 200.35,-199.7l0 -457.38c0,-110.73 -89.63,-199.7 -200.35,-199.7l-665.64 0zm1051.84 0l0 856.78 735.5 0 0 -97.53 -619.52 0 0 -287.34 577.35 0 0 -97.56 -577.35 0 0 -276.79 619.52 0 0 -97.56 -735.5 0zm1663.45 0c-110.73,0 -200.35,88.97 -200.35,199.7l0 457.38c0,110.73 89.63,199.7 200.35,199.7l465.28 0c110.73,0 200.35,-88.97 200.35,-199.7l0 -72.69 -115.99 0 0 51.62c0,65.91 -53.37,119.28 -119.08,119.28l-395.86 0c-65.68,0 -119.08,-53.37 -119.08,-119.28l0 -415.21c0,-65.91 53.4,-119.28 119.08,-119.28l395.86 0c65.7,0 119.08,53.37 119.08,119.28l0 51.62 115.99 0 0 -72.72c0,-110.73 -89.63,-199.7 -200.35,-199.7l-465.28 0zm1099.75 101.51l395.86 0c65.7,0 119.08,53.37 119.08,119.28l0 415.21c0,65.91 -53.37,119.28 -119.08,119.28l-395.86 0c-65.68,0 -119.08,-53.37 -119.08,-119.28l0 -415.21c0,-65.91 53.4,-119.28 119.08,-119.28zm-34.71 -101.51c-110.73,0 -200.35,88.97 -200.35,199.7l0 457.38c0,110.73 89.63,199.7 200.35,199.7l465.28 0c110.73,0 200.35,-88.97 200.35,-199.7l0 -457.38c0,-110.73 -89.63,-199.7 -200.35,-199.7l-465.28 0zm851.49 0l0 856.78 115.99 0 0 -674.64 391.05 674.64 53.16 0 388.85 -670.9 0 670.9 115.99 0 0 -856.78 -119.94 0 -411.49 708.28 -411.46 -708.28 -122.14 0zm1380.04 101.51l514.94 0c65.7,0 119.08,53.61 119.08,119.73l0 90.07c0,66.12 -53.37,119.73 -119.08,119.73l-514.94 0 0 -329.53zm-115.99 -101.51l0 856.78 115.99 0 0 -324.24 549.65 0c110.73,0 200.35,-88.97 200.35,-199.91l0 -132.69c0,-110.96 -89.63,-199.94 -200.35,-199.94l-665.64 0zm1154.63 101.51l514.94 0c65.7,0 119.08,53.61 119.08,119.73l0 84.78c0,66.12 -53.37,119.73 -119.08,119.73l-514.94 0 0 -324.24zm-115.99 -101.51l0 856.78 115.99 0 0 -329.53 453.22 0 190.7 329.53 131.14 0 -193.31 -333.49c95.12,-14.26 168.26,-95.99 168.26,-195.96l0 -127.4c0,-110.96 -89.63,-199.94 -200.35,-199.94l-665.64 0zm1554.92 108.56l227.6 444.01 -455.18 0 227.57 -444.01zm-64.81 -108.56l-451.46 856.78 131.38 0 111.38 -217.71 547.01 0 111.59 217.71 131.17 0 -451.46 -856.78 -129.6 0zm870.6 101.51l514.94 0c65.7,0 119.08,53.61 119.08,119.73l0 84.78c0,66.12 -53.37,119.73 -119.08,119.73l-514.94 0 0 -324.24zm-115.99 -101.51l0 856.78 115.99 0 0 -329.53 453.22 0 190.7 329.53 131.14 0 -193.31 -333.49c95.12,-14.26 168.26,-95.99 168.26,-195.96l0 -127.4c0,-110.96 -89.63,-199.94 -200.35,-199.94l-665.64 0zm1592.07 0l406.18 520.44 0 336.34 116.02 0 0 -336.34 406.18 -520.44 -122.14 0 -342.05 433.9 -342.05 -433.9 -122.14 0zm1787.14 0l-131.38 0 451.46 856.78 129.6 0 451.46 -856.78 -131.17 0 -385.11 747.83 -384.87 -747.83zm1074.69 0l0 856.78 735.5 0 0 -97.53 -619.52 0 0 -287.34 577.35 0 0 -97.56 -577.35 0 0 -276.79 619.52 0 0 -97.56 -735.5 0zm935.86 0l0 856.78 115.99 0 0 -711.55 619.52 711.55 130.49 0 0 -856.78 -115.99 0 0 711.58 -619.52 -711.58 -130.49 0zm1181.02 101.51l514.94 0c65.7,0 119.08,53.37 119.08,119.28l0 415.21c0,65.91 -53.37,119.28 -119.08,119.28l-514.94 0 0 -653.78zm-115.99 -101.51l0 856.78 665.64 0c110.73,0 200.35,-88.97 200.35,-199.7l0 -457.38c0,-110.73 -89.63,-199.7 -200.35,-199.7l-665.64 0zm1051.84 0l0 856.78 735.5 0 0 -97.53 -619.52 0 0 -287.34 577.35 0 0 -97.56 -577.35 0 0 -276.79 619.52 0 0 -97.56 -735.5 0zm1051.84 101.51l514.94 0c65.7,0 119.08,53.61 119.08,119.73l0 84.78c0,66.12 -53.37,119.73 -119.08,119.73l-514.94 0 0 -324.24zm-115.99 -101.51l0 856.78 115.99 0 0 -329.53 453.22 0 190.7 329.53 131.14 0 -193.31 -333.49c95.12,-14.26 168.26,-95.99 168.26,-195.96l0 -127.4c0,-110.96 -89.63,-199.94 -200.35,-199.94l-665.64 0zm1065.21 727.86l0 128.74 128.74 0 0 -128.74 -128.74 0z"/>
 </g>
</svg>
